<?xml version="1.0" encoding="UTF-8"?>
<svg id="Layer_1" data-name="Layer 1" xmlns="http://www.w3.org/2000/svg" viewBox="0 0 499.83 211.47">
  <defs>
    <style>
      .cls-1 {
        fill: #231f20;
      }

      .cls-1, .cls-2 {
        stroke: #fff;
        stroke-miterlimit: 10;
        stroke-width: 2px;
      }

      .cls-3 {
        fill: #fff;
        font-family: ProximaNova-Bold, 'Proxima Nova';
        font-size: 60px;
        font-weight: 700;
      }

      .cls-4 {
        fill: #86d2d9;
        font-family: Montserrat-ExtraLight, Montserrat;
        font-size: 100px;
        font-variation-settings: 'wght' 200;
        font-weight: 200;
      }

      .cls-2 {
        fill: none;
      }
    </style>
  </defs>
  <text class="cls-4" transform="translate(283.34 108.61)"><tspan x="0" y="0">ha r</tspan></text>
  <text class="cls-3" transform="translate(10.13 170.82)"><tspan x="0" y="0">by Shaun Murray</tspan></text>
  <g>
    <path class="cls-2" d="M415.73,46.55l9.53,59.6s2.64,4.75,2.63,1.89c-.01-2.85-.94-6.31-.94-6.31"/>
    <g>
      <path class="cls-2" d="M426.85,102s1.3-1.25.84-4.14c-.46-2.89-1.72-1.49-1.98-3.03"/>
      <path class="cls-2" d="M425.7,94.82c-.22-1.52,1.4-.6.95-3.45s-2.08-3.62-2.08-3.62"/>
    </g>
    <g>
      <text/>
      <path class="cls-2" d="M422.32,73.65s1.62.77,2.08,3.62c.46,2.85-1.17,1.93-.95,3.45"/>
    </g>
    <g>
      <path class="cls-2" d="M422.32,73.65s1.3-1.25.84-4.14-1.72-1.49-1.98-3.03"/>
      <path class="cls-2" d="M421.17,66.47c-.22-1.52,1.4-.6.95-3.45-.46-2.85-2.08-3.62-2.08-3.62"/>
    </g>
    <g>
      <path class="cls-2" d="M420.06,59.54s1.3-1.25.84-4.14c-.46-2.89-1.72-1.49-1.98-3.03"/>
      <path class="cls-2" d="M417.78,45.3s1.62.77,2.08,3.62c.46,2.85-1.17,1.93-.95,3.45"/>
    </g>
    <ellipse class="cls-1" cx="415.68" cy="46.16" rx=".37" ry=".51" transform="translate(-2.07 66.22) rotate(-9.09)"/>
    <ellipse class="cls-1" cx="417.77" cy="45.21" rx=".37" ry=".51" transform="translate(-1.9 66.53) rotate(-9.09)"/>
  </g>
  <polygon class="cls-2" points="415.18 15.42 413.15 23.57 406.17 21.98 411.93 26.85 407.56 32.16 413.15 28.71 415.11 36.12 416.84 28.54 422.7 31.99 418.51 26.79 423.94 21.98 416.74 23.45 415.18 15.42"/>
</svg>